{"title":"1974.Godzilla.vs.Mechagodzilla.720p.HDTV.XviD.AC3-CG","uid":15386071,"size":2272209983,"categoryP":"video","categoryS":"hd___movies","magnet":"?xt=urn:btih:2cbce619deebbb493770f93f4e727e1ad17f5a1e&amp;dn=1974.Godzilla.vs.Mechagodzilla.720p.HDTV.XviD.AC3-CG&amp;tr=udp%3A%2F%2Ftracker.leechers-paradise.org%3A6969&amp;tr=udp%3A%2F%2Fzer0day.ch%3A1337&amp;tr=udp%3A%2F%2Fopen.demonii.com%3A1337&amp;tr=udp%3A%2F%2Ftracker.coppersurfer.tk%3A6969&amp;tr=udp%3A%2F%2Fexodus.desync.com%3A6969","seeders":1,"leechers":1,"uploader":"imPROvise","files":2,"time":1469293850,"description":"General\r\nComplete name                            : 1974 Gojira tai Mekagojira.720p.ac3.CG.avi\r\nFormat                                   : AVI\r\nFormat/Info                              : Audio Video Interleave\r\nFormat profile                           : OpenDML\r\nFile size                                : 2.12 GiB\r\nDuration                                 : 1h 24mn\r\nOverall bit rate                         : 3 596 Kbps\r\nWriting application                      : Lavf52.22.1\r\n\r\nVideo\r\nID                                       : 0\r\nFormat                                   : MPEG-4 Visual\r\nFormat profile                           : Advanced   \r\nFormat settings, BVOP                    : 1\r\nFormat settings, QPel                    : No\r\nFormat settings, GMC                     : No warppoints\r\nFormat settings, Matrix                  : Custom\r\nCodec ID                                 : XVID\r\nCodec ID/Hint                            : XviD\r\nDuration                                 : 1h 24mn\r\nBit rate                                 : 3 394 Kbps\r\nWidth                                    : 1 280 pixels\r\nHeight                                   : 528 pixels\r\nDisplay aspect ratio                     : 2.40:1\r\nFrame rate                               : 23.976 (23976/1000) fps\r\nColor space                              : YUV\r\nChroma subsampling                       : 4:2:0\r\nBit depth                                : 8 bits\r\nScan type                                : Progressive\r\nCompression mode                         : Lossy\r\nBits/(Pixel*Frame)                       : 0.209\r\nStream size                              : 2.00 GiB (94%)\r\nWriting library                          : XviD 1.2.0.dev47 (UTC 2006-11-01)\r\n\r\nAudio\r\nID                                       : 1\r\nFormat                                   : AC-3\r\nFormat/Info                              : Audio Coding 3\r\nMode extension                           : CM (complete main)\r\nFormat settings, Endianness              : Big\r\nCodec ID                                 : 2000\r\nDuration                                 : 1h 24mn\r\nBit rate mode                            : Constant\r\nBit rate                                 : 192 Kbps\r\nChannel(s)                               : 2 channels\r\nChannel positions                        : Front: L R\r\nSampling rate                            : 48.0 KHz\r\nFrame rate                               : 31.250 fps (1536 spf)\r\nBit depth                                : 16 bits\r\nCompression mode                         : Lossy\r\nStream size                              : 116 MiB (5%)\r\nAlignment                                : Aligned on interleaves\r\nInterleave, duration                     : 32 ms (0.77 video frame)\r\nInterleave, preload duration             : 32 ms\r\n\r\nEnglish sub srt. file","torrent":{"xt":"urn:btih:2cbce619deebbb493770f93f4e727e1ad17f5a1e","amp;dn":"1974.Godzilla.vs.Mechagodzilla.720p.HDTV.XviD.AC3-CG","amp;tr":["udp%3A%2F%2Ftracker.leechers-paradise.org%3A6969","udp%3A%2F%2Fzer0day.ch%3A1337","udp%3A%2F%2Fopen.demonii.com%3A1337","udp%3A%2F%2Ftracker.coppersurfer.tk%3A6969","udp%3A%2F%2Fexodus.desync.com%3A6969"],"infoHash":"2cbce619deebbb493770f93f4e727e1ad17f5a1e","infoHashBuffer":{"type":"Buffer","data":[44,188,230,25,222,235,187,73,55,112,249,63,78,114,126,26,209,127,90,30]},"announce":[],"urlList":[]}}